<svg
  width="400"
  height="400"
  viewBox="0 0 400 400"
  fill="none"
  xmlns="http://www.w3.org/2000/svg"
>
  <defs>
    <linearGradient id="docCardBg" x1="0" y1="0" x2="1" y2="1">
      <stop offset="0" stop-color="#FFE7DA" />
      <stop offset="1" stop-color="#F7C0A7" />
    </linearGradient>
  </defs>

  <!-- Soft rounded background -->
  <rect x="20" y="20" width="360" height="360" rx="80" fill="url(#docCardBg)" />

  <!-- Head -->
  <circle cx="200" cy="145" r="60" fill="#FDF5F0" />

  <!-- Upper body/coat -->
  <path
    d="M120 310C130 245 160 210 200 210C240 210 270 245 280 310C280 310 240 340 200 340C160 340 120 310 120 310Z"
    fill="#FFFFFF"
  />

  <!-- Lapels -->
  <path
    d="M170 220L145 295"
    stroke="#D0C4BF"
    stroke-width="4"
    stroke-linecap="round"
  />
  <path
    d="M230 220L255 295"
    stroke="#D0C4BF"
    stroke-width="4"
    stroke-linecap="round"
  />

  <!-- Stethoscope tubing -->
  <path
    d="M165 180C165 210 170 240 200 250C230 240 235 210 235 180"
    stroke="#F29B82"
    stroke-width="6"
    stroke-linecap="round"
    stroke-linejoin="round"
  />

  <!-- Earpieces -->
  <circle cx="155" cy="165" r="7" fill="#F29B82" />
  <circle cx="245" cy="165" r="7" fill="#F29B82" />

  <!-- Chest piece -->
  <circle cx="200" cy="265" r="12" fill="#FFFFFF" stroke="#F29B82" stroke-width="4" />
  <circle cx="200" cy="265" r="5" fill="#FCE6DC" />

  <!-- Subtle highlight -->
  <circle cx="185" cy="135" r="7" fill="white" fill-opacity="0.6" />
</svg>
